<?xml version="1.0" encoding="utf-8"?>
<!-- Generator: Adobe Illustrator 16.0.0, SVG Export Plug-In . SVG Version: 6.00 Build 0)  -->
<!DOCTYPE svg PUBLIC "-//W3C//DTD SVG 1.1//EN" "http://www.w3.org/Graphics/SVG/1.1/DTD/svg11.dtd">
<svg version="1.1" id="Capa_1" xmlns="http://www.w3.org/2000/svg" xmlns:xlink="http://www.w3.org/1999/xlink" x="0px" y="0px"
	 width="227.09px" height="90px" viewBox="0 0 227.09 90" enable-background="new 0 0 227.09 90" xml:space="preserve">
<path fill="#77787B" d="M144.181,81.735c-6.454,0-118.839,0.029-122.352,0c-3.941-0.019-4.517-1.171-2.852-3.836
	c1.67-2.666,21.139-33.924,23.146-37.135c2.012-3.206,4.772-2.876,7.741-2.876c2.979,0,52.507,0,54.559,0
	c2.05,0,3.323,2.085,3.323,2.085s1.805-2.162,4.244-2.162c2.443,0,32.301,0,34.935,0c2.619,0,3.241,3.057,3.241,3.057
	s1.245-3.057,4.282-3.057c3.062,0,13.607,0,15.691,0c2.088,0,2.784,0.968,2.784,3.134c0,2.16,0,5.872,0,6.445
	c0,0.589,0.189,1.821,2.35-0.19c2.165-2.013,8.514-8.496,9.052-9.041c0.532-0.544,0.621-0.461,2.741-0.461
	c2.127,0,13.674,0,15.753,0c2.088,0,4.81,0.83,3.103,3.776c-1.833,3.148-21.872,36.171-23.136,38.417
	c-1.274,2.24-2.396,1.874-4.059,1.874c-1.661,0-13.699,0-15.748,0c-2.045,0-2.342-0.949-1.142-2.921
	c1.194-1.965,2.779-5.682,2.779-5.682l-9.623,7.809l-0.314-8.958c0,0-5.157,7.397-6.48,8.84
	C147.277,81.858,144.45,81.735,144.181,81.735z"/>
<path fill="#FFFFFF" d="M51.909,41.01c6.574,0,11.132,0.603,8.257,5.56c-2.887,4.975-19.237,32.057-19.237,32.057
	S27.467,78.68,24.104,78.68c-3.37,0-0.319-4.224,1.116-6.787c1.45-2.562,16.036-26.44,17.789-28.842
	C44.781,40.646,48.859,41.01,51.909,41.01z"/>
<path fill="#FFFFFF" d="M101.34,41.157c-8.646,0-27.422,0-31.107,0s-5.117,0.292-7.834,4.618c-2.72,4.323-6.485,10.557-8.41,13.922
	c-1.92,3.365,0.239,5.142,2.486,5.303c2.24,0.162,14.737,0,17.943,0c3.211,0,3.844,0.807,3.042,2.572
	c-0.791,1.759-3.198,3.367-8.165,3.367c-4.974,0-22.152,0-22.152,0s-1.265,1.927-3.338,5.445c-1.655,2.782,1.337,2.295,2.616,2.295
	c1.289,0,31.505-0.052,34.23-0.052c2.727,0,4.774-0.328,5.734-1.878c1.092-1.767,6.572-10.925,8.34-13.651
	c1.765-2.726,0.521-5.301-2.849-5.472c-3.354-0.153-14.248,0-16.813,0c-2.567,0-2.247-1.599-1.763-2.884
	c0.477-1.278,1.432-3.84,3.526-3.84c2.07,0,8.65,0,9.924,0c1.284,0,1.956,0.859,1.284,1.763c-0.024,0.032,12.977,0,12.977,0
	s1.047-1.633,2.96-4.815C105.859,44.692,105.243,41.157,101.34,41.157z"/>
<path fill="#FFFFFF" d="M144.832,41.168c-7.829,0-29.13,0.032-31.019,0.032c-1.914,0-3.275-0.052-5.688,3.7
	c-2.41,3.756-16.316,27.165-18.029,29.673c-1.713,2.503-1.073,4.037,0.552,4.037c1.638,0,29.263,0.07,31.995,0.07
	c2.742,0,3.512,0.323,5.142-1.878c1.729-2.349,4.563-6.104,0.622-6.104c-3.944,0-17.353,0.072-18.84,0.072
	c-1.481,0-2.177-0.694-1.211-2.128c0.978-1.438,2.051-2.968,2.324-3.295c0.275-0.326,0.552-0.654,2.274-0.654
	c1.724,0,12.88,0,13.858,0c0.972,0,1.76-1.246,2.73-2.588c0.978-1.35,3.296-4.409-0.604-4.409c-3.894,0-8.856,0-10.198,0
	c-1.343,0-1.98-0.644-1.383-1.711c0.597-1.067,1.63-3.531,2.217-4.17c0.604-0.659,0.373-0.977,2.918-0.977
	c2.553,0,17.343,0,19.531,0c2.182,0,2.953-1.581,3.938-3.623C146.971,45.125,149.709,41.168,144.832,41.168z"/>
<path fill="#FFFFFF" d="M200.729,46.495c1.972-3.589,2.486-6.364-1.172-6.364c-3.708,0-11.348,0-12.976,0
	c-1.616,0-3.162,1.437-4.695,3.056c-1.528,1.622-13.077,12.247-13.077,12.247s0.234-11.458,0.234-13.032
	c0-1.576-1.114-2.182-3.247-2.182c-2.132,0-10.048,0.046-10.048,0.046c-2.821,0-3.563-0.27-5.015,2.041
	c-1.549,2.465-17.337,28.596-19.471,31.944c-1.924,3.024-0.524,4.478,1.237,4.478c1.765,0,9.537-0.049,11.998-0.049
	s3.22-0.07,5.404-3.27c2.177-3.206,6.664-10.849,6.664-10.849l0.149,11.498l15.813-12.477c0,0-4.409,8.255-6.036,11.039
	c-1.617,2.773-0.36,4.058,1.444,4.058c1.809,0,10.139,0,11.398,0c1.248,0,2.098-0.535,3.713-3.04
	c1.629-2.505,15.557-25.327,17.601-28.987C200.676,46.6,200.707,46.545,200.729,46.495"/>
</svg>
