<?xml version="1.0" encoding="utf-8"?>
<!-- Generator: Adobe Illustrator 16.0.0, SVG Export Plug-In . SVG Version: 6.00 Build 0)  -->
<!DOCTYPE svg PUBLIC "-//W3C//DTD SVG 1.1//EN" "http://www.w3.org/Graphics/SVG/1.1/DTD/svg11.dtd">
<svg xmlns="http://www.w3.org/2000/svg" xmlns:xlink="http://www.w3.org/1999/xlink" style="margin:auto;display:block;z-index:1;position:relative" width="100%" height="1200" preserveAspectRatio="xMidYMid" viewBox="0 0 1873 1708">
<g transform="translate(936.5,354) scale(1,1) translate(-936.5,-354)"><g transform="translate(1742.5849082891932,-122.71728585022277) scale(100)" opacity="0.03">
  <path d="M9.08405 0 C9.08405 1.7793499999999995 9.462731682542168 2.582081898238841 8.690700651343342 4.1852208533410105 S7.054964382904317 5.9927896993763685 5.663812534574829 7.102196278313706 S3.881163783436639 9.008163270675094 2.1464258028959113 9.404105894510263 S-0.2866533095651296 9.252236524490463 -2.021391290105857 8.856293900655295 S-4.6229996059097616 8.650913967249831 -6.014151454239251 7.5415073883124935 S-7.412415213270142 5.544560535433023 -8.184446244468969 3.9414215803308545 S-9.645950000000001 1.7793500000000007 -9.645950000000001 1.1812881792235412e-15 S-8.956477275667797 -2.3382826252286835 -8.18444624446897 -3.9414215803308528 S-7.405303302568742 -6.432100809375154 -6.014151454239253 -7.541507388312492 S-3.7561292706465865 -8.460351276820127 -2.0213912901058593 -8.856293900655295 S0.4116878223551821 -9.800048518345431 2.1464258028959096 -9.404105894510263 S4.272660686245338 -8.211602857251043 5.663812534574826 -7.1021962783137065 S7.918669620144513 -5.788359808443181 8.69070065134334 -4.185220853341012 S9.08405 -1.7793500000000018 9.08405 -2.224950551158903e-15" fill="#ffffff" stroke-width="0">
    <animateTransform attributeName="transform" type="rotate" dur="50s" repeatCount="indefinite" values="0;51.42857142857143"></animateTransform>
  </path>
</g><g transform="translate(1903.8018899470317,-218.0607430202673) scale(100)" opacity="0.03">
  <path d="M10.90086 0 C10.90086 2.1352199999999995 11.3552780190506 3.0984982778866086 10.428840781612008 5.0222650240092115 S8.465957259485181 7.191347639251641 6.7965750414897945 8.522635533976446 S4.657396540123966 10.80979592481011 2.5757109634750934 11.284927073412312 S-0.34398397147815585 11.102683829388555 -2.4256695481270287 10.627552680786353 S-5.547599527091714 10.381096760699796 -7.2169817450871 9.049808865974992 S-8.89489825592417 6.653472642519628 -9.821335493362763 4.729705896397026 S-11.57514 2.135220000000001 -11.57514 1.4175458150682494e-15 S-10.747772730801357 -2.8059391502744204 -9.821335493362765 -4.729705896397023 S-8.886363963082488 -7.718520971250183 -7.216981745087103 -9.049808865974988 S-4.507355124775904 -10.152421532184151 -2.4256695481270314 -10.627552680786353 S0.4940253868262179 -11.760058222014514 2.5757109634750908 -11.284927073412312 S5.127192823494406 -9.853923428701252 6.796575041489792 -8.522635533976448 S9.502403544173413 -6.946031770131817 10.428840781612006 -5.022265024009214 S10.90086 -2.135220000000002 10.90086 -2.6699406613906833e-15" fill="#ffffff" stroke-width="0">
    <animateTransform attributeName="transform" type="rotate" dur="25s" repeatCount="indefinite" values="0;51.42857142857143"></animateTransform>
  </path>
</g><g transform="translate(2290.7226459258445,-446.8850402283741) scale(100)" opacity="0.03">
  <path d="M15.261204 0 C15.261204 2.989307999999999 15.89738922667084 4.337897589041253 14.600377094256812 7.031171033612897 S11.852340163279253 10.0678866949523 9.515205058085712 11.931689747567026 S6.520355156173553 15.133714294734158 3.605995348865131 15.79889790277724 S-0.48157756006941854 15.543757361143976 -3.39593736737784 14.878573753100895 S-7.7666393379283996 14.533535464979716 -10.10377444312194 12.66973241236499 S-12.45285755829384 9.31486169952748 -13.749869690707868 6.621588254955836 S-16.205196 2.9893080000000007 -16.205196 1.9845641410955492e-15 S-15.046881823121899 -3.9283148103841885 -13.74986969070787 -6.6215882549558325 S-12.440909548315485 -10.805929359750259 -10.103774443121944 -12.669732412364986 S-6.310297174686266 -14.213390145057812 -3.3959373673778437 -14.878573753100895 S0.6916355415567059 -16.46408151082032 3.6059953488651275 -15.79889790277724 S7.178069952892168 -13.795492800181753 9.515205058085709 -11.931689747567027 S13.303364961842782 -9.724444478184544 14.60037709425681 -7.0311710336129005 S15.261204 -2.9893080000000025 15.261204 -3.737916925946957e-15" fill="#ffffff" stroke-width="0">
    <animateTransform attributeName="transform" type="rotate" dur="16.666666666666668s" repeatCount="indefinite" values="0;51.42857142857143"></animateTransform>
  </path>
</g></g>
</svg>
  
